<svg width="40" height="40" viewBox="0 0 40 40" fill="none" xmlns="http://www.w3.org/2000/svg">
<path fill-rule="evenodd" clip-rule="evenodd" d="M26.5572 13.4428C25.9972 11.595 24.2807 10.25 22.25 10.25H14.75C12.2647 10.25 10.25 12.2647 10.25 14.75V22.25C10.25 24.2807 11.595 25.9972 13.4428 26.5572C14.0028 28.405 15.7193 29.75 17.75 29.75H25.25C27.7353 29.75 29.75 27.7353 29.75 25.25V17.75C29.75 15.7193 28.405 14.0028 26.5572 13.4428ZM22.25 11.75H14.75C13.0931 11.75 11.75 13.0931 11.75 14.75V22.25C11.75 23.3604 12.3533 24.3299 13.25 24.8487V17.75C13.25 15.2647 15.2647 13.25 17.75 13.25H24.8487C24.3299 12.3533 23.3604 11.75 22.25 11.75ZM17.75 14.75H25.25C26.9069 14.75 28.25 16.0931 28.25 17.75V25.25C28.25 26.9069 26.9069 28.25 25.25 28.25H17.75C16.0931 28.25 14.75 26.9069 14.75 25.25V17.75C14.75 16.0931 16.0931 14.75 17.75 14.75Z" fill="#286CE0"/>
</svg>
