<svg width="189" height="16" viewBox="0 0 189 16" fill="none" xmlns="http://www.w3.org/2000/svg">
<path d="M0.957 15.5L9.2695 1.079H13.8675L22.18 15.5H18.0095L16.4325 12.764H6.6475L5.0705 15.5H0.957ZM8.3955 9.724H14.6845L11.54 4.271L8.3955 9.724ZM24.6889 15.519V15.5095H24.6509V1.098H28.2609V12.479H41.6749V15.519H24.6889ZM44.561 15.519V15.5095H44.523V1.098H48.133V12.479H61.547V15.519H44.561ZM63.407 10.123V7.273H72.508V10.123H63.407ZM76.9764 15.5V1.079H80.5864V15.5H76.9764ZM85.0253 15.5V1.0695H88.5878L100.919 10.883V1.0695H104.481V15.5H100.919L88.5878 5.6865V15.5H85.0253ZM109.478 10.123V7.273H118.579V10.123H109.478ZM133.206 15.9845C128.361 15.9845 122.595 14.113 122.595 8.261C122.595 2.4185 128.361 0.546999 133.206 0.546999C138.061 0.546999 143.827 2.4185 143.827 8.261C143.827 14.113 138.061 15.9845 133.206 15.9845ZM126.205 8.261C126.205 11.985 130.328 12.9445 133.206 12.9445C136.085 12.9445 140.217 11.985 140.217 8.261C140.217 4.537 136.085 3.587 133.206 3.587C130.328 3.587 126.205 4.537 126.205 8.261ZM147.61 15.5V1.0695H151.173L163.504 10.883V1.0695H167.066V15.5H163.504L151.173 5.6865V15.5H147.61ZM171.43 15.5V1.079H188.283V4.024H175.04V6.817H187.333V9.762H175.04V12.555H188.283V15.5H171.43Z" fill="white"/>
</svg>
