<svg width="80" height="22" viewBox="0 0 80 22" fill="none" xmlns="http://www.w3.org/2000/svg">
<path d="M8.12 17.06C5.53 17.06 2.69 16.36 0.4 15.03V13.62C2.6 15.1 5.49 15.85 8.12 15.85C10.54 15.85 16.08 15.49 16.08 12.07C16.08 10.37 14.42 9.74 12.03 9.52L5.53 8.93C3.13 8.71 0.23 8.24 0.23 5.26C0.23 1.77 5.24 0.799999 8.03 0.799999C10.41 0.799999 12.99 1.15 14.87 1.99V3.33C13.19 2.39 10.42 2 8.04 2C6.2 2 1.43 2.61 1.43 5.34C1.43 7.2 3.63 7.54 5.25 7.69L11.61 8.27C15.23 8.6 17.28 9.56 17.28 12.1C17.28 16.41 11.37 17.06 8.12 17.06ZM27.5763 17.06C24.4062 17.06 22.1663 15.91 22.1663 11.78V6.43H20.2163V5.23H22.1663V5.18L22.3663 2.63H23.3663V5.23H29.6163V6.43H23.3663V11.78C23.3663 14.92 24.6963 15.86 27.5763 15.86C28.8763 15.86 29.7963 15.52 30.2463 15.27V16.5C29.9263 16.67 28.8863 17.06 27.5763 17.06ZM38.708 17.05C35.348 17.05 32.148 15.8 32.148 10.66V5.19H33.348V10.66C33.348 14.42 35.168 15.85 38.668 15.85C41.728 15.85 44.658 14.09 44.658 10.38V5.19H45.858V16.5H44.858L44.658 13.83C43.358 16.17 40.778 17.05 38.708 17.05ZM55.6319 17.01C52.7519 17.01 48.3319 15.65 48.3319 10.82C48.3319 5.99 52.7519 4.63 55.6319 4.63C57.9119 4.63 60.7419 5.26 62.1619 7.45V2.07H63.3619V16.46H62.3619L62.1619 14.19C60.7419 16.38 57.9119 17.01 55.6319 17.01ZM49.5319 10.84C49.5319 14.35 52.5419 15.81 55.8619 15.81C59.0919 15.81 62.1619 14.43 62.1619 10.8C62.1619 7.09 58.9419 5.83 55.5719 5.83C52.3719 5.83 49.5319 7.44 49.5319 10.84ZM66.972 21.85C66.552 21.85 66.142 21.8 65.712 21.71V20.49C66.152 20.6 66.572 20.65 66.972 20.65C68.432 20.65 69.642 19.93 70.362 18.63L71.542 16.5H71.512L65.212 5.19H66.582L72.212 15.3L77.842 5.19H79.222L71.412 19.21C70.452 20.95 68.812 21.85 66.972 21.85Z" fill="white" fill-opacity="0.32"/>
</svg>
